<svg xmlns="http://www.w3.org/2000/svg" viewBox="0 0 700 700"><defs><style>.cls-1{font-size:18.61px;fill:#6694ff;font-family:Roobert-Regular, Roobert;letter-spacing:0.04em;}.cls-2{letter-spacing:0.02em;}.cls-3{fill:none;stroke:#00185d;stroke-miterlimit:10;stroke-width:1.48px;}.cls-4{fill:#004dff;}.cls-5{fill:#00185d;}</style></defs><title>layer_4_1</title><g id="data_3"><text class="cls-1" transform="translate(496.51 141.38)">3<tspan class="cls-2" x="11.85" y="0">,</tspan><tspan x="16.97" y="0">555,840 kWh</tspan></text><path class="cls-3" d="M160.28,312.54A39,39,0,0,1,199,347.7a31.42,31.42,0,1,1-21.31,55.2,44.36,44.36,0,0,1-75.2-3.11,27.33,27.33,0,1,1-22.3-47.41,25.61,25.61,0,0,1-.23-3.5,27.35,27.35,0,0,1,47.57-18.41A38.88,38.88,0,0,1,160.28,312.54Z"/><rect class="cls-4" x="348.79" y="534.05" width="5" height="28.38"/><rect class="cls-4" x="372.43" y="534.05" width="5" height="28.38"/><rect class="cls-4" x="396.07" y="534.05" width="5" height="28.38"/><rect class="cls-4" x="419.71" y="534.05" width="5" height="28.38"/><rect class="cls-4" x="443.35" y="534.05" width="5" height="28.38"/><rect class="cls-4" x="466.99" y="534.05" width="5" height="28.38"/><rect class="cls-4" x="490.63" y="534.05" width="5" height="28.38"/><rect class="cls-4" x="514.26" y="534.05" width="5" height="28.38"/><rect class="cls-4" x="537.9" y="534.05" width="5" height="28.38"/><rect class="cls-4" x="561.54" y="534.05" width="5" height="28.38"/><rect class="cls-4" x="585.18" y="534.05" width="5" height="28.38"/><path class="cls-4" d="M506.62,185.82v-6.08l29-14.48v6.23l-23.36,11.29,23.36,11.29v6.23Z"/><path class="cls-4" d="M552.51,194.07l23.28-11.29-23.28-11.29v-6.23l29,14.48v6.08l-29,14.48Z"/><path class="cls-5" d="M103,509.06a11.9,11.9,0,0,0-7.2,2.43,11.85,11.85,0,0,0-7.19-2.43,12,12,0,1,0,0,23.91,11.85,11.85,0,0,0,7.19-2.43,12,12,0,1,0,7.2-21.48ZM78.31,524.72a10.83,10.83,0,0,1-.66-3.7,12.19,12.19,0,0,1,.16-1.82,11,11,0,0,1,.5-1.89ZM81,528.87a10.83,10.83,0,0,1-2-2.64V515.8a10.83,10.83,0,0,1,2-2.64Zm2.68,1.91a11.27,11.27,0,0,1-2-1.31V512.56a10.7,10.7,0,0,1,2-1.3Zm2.69.94a8.58,8.58,0,0,1-1.34-.38c-.23-.07-.46-.15-.68-.24V510.94c.22-.1.45-.17.68-.25a9.82,9.82,0,0,1,1.34-.38Zm1.69.2a8.76,8.76,0,0,1-1-.09V510.21c.34,0,.68-.08,1-.1ZM103,532a10.9,10.9,0,0,1-6.39-2.08l-.14-.1a11.73,11.73,0,0,0,0-17.5l.14-.11A10.93,10.93,0,1,1,103,532Z"/><path class="cls-5" d="M504.53,301.39a2.33,2.33,0,1,0-2.33-2.33A2.33,2.33,0,0,0,504.53,301.39Zm0-3.87a1.54,1.54,0,1,1-1.55,1.54A1.54,1.54,0,0,1,504.53,297.52Z"/><rect class="cls-5" x="502.29" y="366.27" width="0.79" height="2.8"/><rect class="cls-5" x="502.29" y="360.4" width="0.79" height="2.8"/><rect class="cls-5" x="498.34" y="364.34" width="2.8" height="0.79"/><rect class="cls-5" x="504.22" y="364.34" width="2.8" height="0.79"/><rect class="cls-5" x="588.33" y="302.01" width="0.79" height="2.8"/><rect class="cls-5" x="588.33" y="296.14" width="0.79" height="2.8"/><rect class="cls-5" x="584.39" y="300.08" width="2.8" height="0.79"/><rect class="cls-5" x="590.26" y="300.08" width="2.8" height="0.79"/><path class="cls-5" d="M628.4,316.2l.84,1.52.83-1.52a3.81,3.81,0,0,1,1.54-1.54l1.52-.83-1.52-.83a3.81,3.81,0,0,1-1.54-1.54l-.83-1.52-.84,1.52a3.81,3.81,0,0,1-1.54,1.54l-1.52.83,1.52.83A3.81,3.81,0,0,1,628.4,316.2Zm-1.16-2.51a4.58,4.58,0,0,0,1.85-1.85l.15-.26.13.26a4.66,4.66,0,0,0,1.86,1.85l.25.14-.25.14a4.66,4.66,0,0,0-1.86,1.85l-.13.26-.15-.26a4.58,4.58,0,0,0-1.85-1.85l-.25-.14Z"/></g></svg>