<svg xmlns="http://www.w3.org/2000/svg" xmlns:xlink="http://www.w3.org/1999/xlink" viewBox="0 0 700 700"><defs><style>.cls-1,.cls-5{fill:none;}.cls-2{clip-path:url(#clip-path);}.cls-3{clip-path:url(#clip-path-2);}.cls-4{fill:#00185d;}.cls-5{stroke:#00185d;stroke-miterlimit:10;stroke-width:0.79px;}.cls-6{fill:#fff;}.cls-7{clip-path:url(#clip-path-3);}.cls-8{clip-path:url(#clip-path-4);}</style><clipPath id="clip-path"><rect class="cls-1" x="160.22" y="-733.76" width="319.48" height="428.87"/></clipPath><clipPath id="clip-path-2"><rect class="cls-1" x="155.09" y="-741.19" width="329.75" height="443.74"/></clipPath><clipPath id="clip-path-3"><rect class="cls-1" x="160.22" y="120.71" width="319.48" height="428.87"/></clipPath><clipPath id="clip-path-4"><rect class="cls-1" x="155.09" y="113.28" width="329.75" height="443.74"/></clipPath><image id="image" width="2000" height="9700" xlink:href="../Google%20Drive%202/01-Freight/01-Clients/59-JDT/05-Contractors/01-JDT-Carl%20FIler/03-Design/JDT-Collage-sketches_Folder/Links/Email%20Energy%20Report%20v5.jpg"/></defs><title>layer_3_1</title><g id="data_3"><g class="cls-2"><g class="cls-3"><use transform="translate(157.34 -1122.31) scale(0.23)" xlink:href="#image"/></g></g></g><g id="data_4"><path class="cls-4" d="M597.09,349a2.65,2.65,0,0,1,2.09-.28l1.32.38.21-.76-1.31-.38a3.46,3.46,0,0,0-2.72.36l-18.25,11.2.41.67Z"/><rect class="cls-4" x="618.47" y="346.81" width="3.77" height="0.79" transform="translate(158.64 887.77) rotate(-78.73)"/><rect class="cls-4" x="623.54" y="348.24" width="4.51" height="0.79" transform="translate(-71 514.92) rotate(-42.54)"/><rect class="cls-4" x="626.55" y="351.54" width="0.79" height="4.72" transform="translate(236.91 959.03) rotate(-86.64)"/><path class="cls-4" d="M635.17,462.43c-5.86-2.8-12.26-5.28-14.5-13.93h.8s2.11-59,2.31-60.12c-.43-9.65,0-17.68-31.17-16-6.83.37-14.1,2.23-18.47,2.22l-.1,0-2.8-2.09a62,62,0,0,0,9.18.23c2.12-.25,6.89-3.17,7.12-3.32l.37-.28,0,.08,5.71,1.39a4.72,4.72,0,0,0,1.34.19,5,5,0,0,0,2.84-.89l22.62-15.58a1.43,1.43,0,0,0-.41-2.55l-20-5.94a5.38,5.38,0,0,0-4.34.58L589.8,350a22.14,22.14,0,0,1,.37-2.69,24.92,24.92,0,0,1,2.17-1.48c1.77-1.11,3.16-2,3.64-4.59a4.9,4.9,0,0,0,1.77-.8s2.29-2.61,2.1-3.47a3,3,0,0,0-2-2.08,1.9,1.9,0,0,0,.07-1.27,3.31,3.31,0,0,0-2.34-1.44,1.6,1.6,0,0,0-.09-.65c-.33-.66-1.85-.95-2.56-1.05v0a13.85,13.85,0,0,0,2-3q.47-.42.93-.78c1.37-1.12,2.67-2.18,2.22-4.45a.54.54,0,0,0-.39-.41.72.72,0,0,0-.69.16,26.43,26.43,0,0,1-2.78,2,33,33,0,0,0-3.07,2.19c-.51.51-3.14,2.51-5.44,4.22a2.8,2.8,0,0,0-.93,1.24l-7.41,19.68c-.88-6.94-3.69-25.41-5.17-30.43-1.33-4.5-4.32-7.6-15.49-10,0-.13.09-.27.14-.41a56.41,56.41,0,0,0,5.5,1.34c3.65.57,4-4.33,4-5.84,1,0,2.41-3,1.52-4.47l1.46.63a1.29,1.29,0,0,0,1.27-.31,1.26,1.26,0,0,0,.35-1.22c-1.06-4.25-1.29-6.18-1.16-6.57a13.3,13.3,0,0,1,.56-1.22c1-2,2.67-5.39,2.53-8.36a8.63,8.63,0,0,0-.16-1.23c2.57-.68,4.45-2.45,2.07-4.78.77-1.13,1.54-5.66-5.37-5.28.38-1.13,1.15-3.77-11.91-1.88-2.69.37-10.56-3.59-13.25,3.2-4.6.14-9.74,7.53-4,22.14.11.49.22,1,.34,1.42-.76,2.75-1.91,6.8-3.89,8.45v-.1c-21.22,1.25-20.72,17.8-20.39,28.75l0,1.42c0,.85,0,1.88,0,3.05,0,10.48-.08,31.61,5.66,36.26l-.06,1.51a67.19,67.19,0,0,0,1.08,17h.07c1.45,5.79,5.23,10,12.67,10.09,17,.25,41.36,0,41.36,0,0,6.4,2.46,55.15,2.46,55.15l1.77,0c-.49,4.47-1.95,9.55.05,17.33,2.5.57,8.79,1.51,8.79,1.51l.16-2.57,3,3.51,23,3.66s1.59-4.36-3.6-7.19c-6.17-3.37-13-6.41-14.76-16.05l2.24,0s1.05-53.64,1.4-62.91h0c-.08-6-1.22-10-3.58-12.37s-6.09-3.46-12.39-3.46c-2.91,0-14.16.24-14.27.25v-.57c.11,0,11.36-.25,14.28-.25,6.47,0,10.3,1.09,12.8,3.63s3.65,6.58,3.74,12.74l2.17-.08c.13,6-1.72,51.7-1.72,51.7h2.3c-.2,4.28-1.42,9.15.88,16.49,2.37.42,8.28,1,8.28,1l0-2.4,3,3.12L638.88,469S640.15,464.81,635.17,462.43Zm-36.84-10.77v.57l-17,.18v-.56ZM596,347.11a4.61,4.61,0,0,1,3.71-.49l20,5.94a.64.64,0,0,1,.18,1.14l-22.62,15.58a4.2,4.2,0,0,1-3.53.59l-5.16-1.26,2.33-1.76a1.1,1.1,0,0,0,.37-1,.92.92,0,0,0-.51-.73h-.05l1.56-1.21a1.19,1.19,0,0,0-.48-2.08,4.44,4.44,0,0,0-2.79.78l0,0,1.89-1.47a1.24,1.24,0,0,0,.43-1.3,1.21,1.21,0,0,0-.93-.88,4.71,4.71,0,0,0-3,.83l-1.3.69.72-.6a1,1,0,0,0,.33-1,1,1,0,0,0-.81-.73,5,5,0,0,0-3.15.51l-3.76,2-6.18,1.85-1.31-.5Zm3.06-10a11.08,11.08,0,0,1-1.88,2.78,7.33,7.33,0,0,1-2.79.87,7.08,7.08,0,0,1-.6-1,7.89,7.89,0,0,0,2.74-1.81,20.27,20.27,0,0,0,1.08-2.31A2.16,2.16,0,0,1,599.07,337.13Zm-4.73,3.65h0Zm1.2-7.79a2.46,2.46,0,0,1,1.71,1,11.6,11.6,0,0,1-1.38,3.54,8.2,8.2,0,0,1-2.94,1.7,2.42,2.42,0,0,1-.73-.48,8.42,8.42,0,0,0,2.48-2.33A20.17,20.17,0,0,0,595.54,333Zm-.73-1.09a14.06,14.06,0,0,1-.85,4.22,8.91,8.91,0,0,1-3,2.43h0a1,1,0,0,1-.39-.19,5.33,5.33,0,0,1,1.58-4.15,3.65,3.65,0,0,0,1-2.88A3.72,3.72,0,0,1,594.81,331.9Zm-9.29,0a1.9,1.9,0,0,1,.66-.87c1.44-1.08,4.87-3.64,5.53-4.3a30.65,30.65,0,0,1,2.95-2.09c1.12-.74,2.18-1.45,2.7-1.88.18,1.58-.75,2.33-2,3.35-.33.26-.67.54-1,.85l-.09.11a14.4,14.4,0,0,1-1.79,2.79.81.81,0,0,0-.38-.12.84.84,0,0,0-.7.31,21.58,21.58,0,0,1-3.26,3.2,12.76,12.76,0,0,0-3.47,3.9l.68.39a12.22,12.22,0,0,1,3.29-3.69,21.92,21.92,0,0,0,3.37-3.3h.08a2.59,2.59,0,0,1-.5,3.16,6.2,6.2,0,0,0-1.79,4.83,4.92,4.92,0,0,1-.66,2.9l.67.42a4.93,4.93,0,0,0,.76-2.58,1.18,1.18,0,0,0,.4.1.59.59,0,0,0,.22-.05,1.13,1.13,0,0,0,.32-.13,2.68,2.68,0,0,0,1.39.86H593c.6,1.15.87,1.55,1.19,1.55h.15a4.2,4.2,0,0,0,.75-.1c-.47,2-1.57,2.69-3.2,3.71a26.49,26.49,0,0,0-2.29,1.57c-.13.11-.38.31-.66,3.78l-13.64,8.41Zm-10.84,26.54-3.27-.74a4,4,0,0,0-4.14.92l-1.1,1.06c.1-1.67.3-5,.48-9,2.55-1.81,7.9-3.58,9.3-4,.38,2.71.68,4.93.81,6.2Zm-2.54-73.94c.12,2.76-1.55,6.15-2.45,8-.3.6-.51,1-.61,1.31-.23.69.16,3.05,1.15,7a.47.47,0,0,1-.14.46.51.51,0,0,1-.45.14l-3.35-1.46-.27.61c-2.64-.55-6.32-.13-7.32.53-1.15-.38-1.12-3.2-3.65-5.47-1.65-1.49-5-2.27-4.22-5.28s6.34-7,3.26-11.5c3.85,1.51,12.87,4.71,16.33,4.71a9.26,9.26,0,0,0,1.57-.14A8.08,8.08,0,0,1,572.14,284.48Zm-30.78,13.87c.7-.48,1.39-2.65,1.91-4.36a3.33,3.33,0,0,0-.31-2.67c-1.12-1.93-1.9-7.28,1.79-8.11a2,2,0,0,1,2.34,2.38c-1.12,4.73-3.75,15.17-2.21,17s3.27,5.1,11.21,7.66a20.89,20.89,0,0,1-.94,2.58c-2.92,1.32-14.32.29-17.76-5.84C539.29,305.26,540.4,301.8,541.36,298.35Zm-4.74,8.83c2.7,5.06,10.14,6.91,15,6.91a9.93,9.93,0,0,0,3.91-.61l.1-.08a6.76,6.76,0,0,0,.78-1.77c12,2.55,13.94,5.93,15,9.46,1.17,4,3.18,16.4,4.39,24.81a47.38,47.38,0,0,0-9.14,3.83c.27-6.69.45-15.08,0-21.28l-.79.06c.43,6.35.23,15,0,21.78h0c-.21,5.06-.47,9-.55,10.17L562.73,363c-17.09.83-26.49.64-28.53.58,1.23-11,2.24-27.69,2-32.74l-.79,0c.16,3.14-.18,10.84-.76,18.84a48.25,48.25,0,0,1-17.4-.85c-.08-3.54-.08-6.78-.07-9.23,0-1.17,0-2.2,0-3.07l0-1.42C516.79,323.86,516.33,308.46,536.62,307.18Zm-19.36,42.46a50.36,50.36,0,0,0,11.13,1.27,44.92,44.92,0,0,0,6.2-.43c-.35,4.69-.77,9.43-1.22,13.4l0,.42.43,0s1.91.07,5.67.07c4.77,0,12.57-.12,23.49-.65h.15l3-2.88h0v0l1.73-1.66a3.28,3.28,0,0,1,3.37-.73l3.21.72-.07.2.2.08-3.48,2.14-1.06-.4-.28.73,3.55,1.36,6.51-1.95,3.83-2a4.13,4.13,0,0,1,2.65-.42.23.23,0,0,1,.18.16.21.21,0,0,1-.08.22l-5.22,4.38-5.07,1.91.28.74,5.13-1.93,1.94-1.62,0,0,4.38-2.32a4.15,4.15,0,0,1,2.47-.75.46.46,0,0,1,.3.32.45.45,0,0,1-.17.48l-5.6,4.35L579,367.7l.35.71,5.84-2.86.18-.14,4.06-2.15a3.82,3.82,0,0,1,2.28-.69.36.36,0,0,1,.26.27.39.39,0,0,1-.14.42l-2.63,2-.24.11-.16.08,0,.09-2.23,1.72L580.86,370l.34.71L587,368l2.61-2a1.26,1.26,0,0,1,.9-.17.34.34,0,0,1,.06.21.3.3,0,0,1-.09.21l-3.38,2.56c-.05,0-4.83,3-6.77,3.18a66.55,66.55,0,0,1-9.89-.29l-4.21-.28h-.06l-.06,0c-24.6,6.34-34.55,7.37-42.61,4.39C518.75,374.05,517.55,360.61,517.26,349.64Zm18.11,35.28c-3.24,1.42-9.44,4.26-11.8,7.76a65.93,65.93,0,0,1-.8-15.27c0-.36,0-.71,0-1.06a3.11,3.11,0,0,0,.41.2,28,28,0,0,0,10,1.65c7.19,0,17-1.89,33-6l3.54.23L573,374.8C570.52,375.2,549.6,378.67,535.37,384.92Zm69.06,57.52v-.56l15.69-.19v.57Z"/><line class="cls-5" x1="581.34" y1="404.12" x2="470.16" y2="404.12"/><rect class="cls-6" x="160.2" y="120.84" width="319.48" height="428.87"/><g class="cls-7"><g class="cls-8"><use transform="translate(157.34 -267.84) scale(0.23)" xlink:href="#image"/></g></g></g></svg>